<svg width="30" height="24" viewBox="0 0 30 24" fill="none" xmlns="http://www.w3.org/2000/svg">
<path d="M26.5122 5.98144C26.5308 6.24393 26.5308 6.50642 26.5308 6.7689C26.5308 14.7747 20.4367 24.0001 9.29966 24.0001C5.86876 24.0001 2.68061 23.007 0 21.2811C0.486644 21.338 0.955865 21.3566 1.46225 21.3566C4.18787 21.3635 6.83633 20.4519 8.98027 18.7689C7.71661 18.746 6.49168 18.3289 5.47657 17.5759C4.46147 16.823 3.70689 15.7718 3.31824 14.5691C3.69339 14.6249 4.06853 14.6632 4.46226 14.6632C5.00581 14.6632 5.54937 14.5877 6.05576 14.4565C4.68431 14.1791 3.45121 13.4354 2.56599 12.3517C1.68076 11.2681 1.19801 9.91145 1.19977 8.51223V8.43789C2.03918 8.90573 2.97704 9.16914 3.93729 9.20677C3.1061 8.6539 2.42458 7.90402 1.95343 7.02394C1.48228 6.14385 1.23614 5.16089 1.23694 4.16263C1.23694 3.03719 1.53659 2.00699 2.06156 1.10687C3.58292 2.9791 5.48077 4.51069 7.63207 5.60235C9.78336 6.694 12.1401 7.32134 14.5494 7.4437C14.4521 6.9878 14.4019 6.5231 14.3996 6.05694C14.3991 5.2615 14.5554 4.47377 14.8596 3.73878C15.1637 3.00379 15.6097 2.33595 16.1722 1.77344C16.7346 1.21093 17.4023 0.76477 18.1372 0.460476C18.8722 0.156181 19.6599 -0.000286143 20.4553 1.92213e-05C21.2847 -0.00207322 22.1057 0.166694 22.867 0.495802C23.6283 0.824909 24.3137 1.3073 24.8804 1.91291C26.2369 1.65176 27.5376 1.15698 28.7248 0.450659C28.2725 1.84986 27.3257 3.0362 26.0616 3.78748C27.2645 3.65102 28.4401 3.33508 29.5494 2.8502C28.7202 4.05725 27.6934 5.11585 26.5122 5.98144Z" fill="white"/>
</svg>
