<svg width="21" height="21" viewBox="0 0 21 21" fill="none" xmlns="http://www.w3.org/2000/svg">
<path d="M16.572 15.1103L20.9995 19.5368L19.5368 20.9995L15.1103 16.572C13.4632 17.8923 11.4146 18.6104 9.30372 18.6074C4.16807 18.6074 0 14.4394 0 9.30372C0 4.16807 4.16807 0 9.30372 0C14.4394 0 18.6074 4.16807 18.6074 9.30372C18.6104 11.4146 17.8923 13.4632 16.572 15.1103ZM14.4983 14.3432C15.8102 12.9941 16.5429 11.1856 16.5399 9.30372C16.5399 5.30622 13.3012 2.06749 9.30372 2.06749C5.30622 2.06749 2.06749 5.30622 2.06749 9.30372C2.06749 13.3012 5.30622 16.5399 9.30372 16.5399C11.1856 16.5429 12.9941 15.8102 14.3432 14.4983L14.4983 14.3432Z" fill="white"/>
</svg>
