<svg width="32" height="22" viewBox="0 0 32 22" fill="none" xmlns="http://www.w3.org/2000/svg">
<path d="M30.6352 3.4426C30.4585 2.77689 30.11 2.1693 29.6246 1.68065C29.1392 1.19201 28.5339 0.839461 27.8694 0.658314C25.4287 1.37438e-07 15.645 0 15.645 0C15.645 0 5.86026 1.37438e-07 3.42069 0.658314C2.75597 0.839285 2.15046 1.19175 1.66484 1.68041C1.17922 2.16907 0.830529 2.77676 0.653703 3.4426C1.58054e-06 5.8983 0 11.023 0 11.023C0 11.023 1.58054e-06 16.1466 0.653703 18.6023C1.01341 19.9569 2.07409 20.9796 3.42069 21.3427C5.86026 21.9999 15.645 21.9999 15.645 21.9999C15.645 21.9999 25.4287 21.9999 27.8694 21.3427C29.2148 20.9796 30.2755 19.9569 30.6352 18.6023C31.2889 16.1466 31.2889 11.023 31.2889 11.023C31.2889 11.023 31.2889 5.8983 30.6352 3.4426ZM12.4445 15.675V6.36985L20.6222 11.023L12.4445 15.675Z" fill="white"/>
</svg>
